<svg  fill="url(#grad)" xmlns="http://www.w3.org/2000/svg" xmlns:xlink="http://www.w3.org/1999/xlink" version="1.1" x="0px" y="0px" viewBox="0 0 60 75" enable-background="new 0 0 60 60" xml:space="preserve">
 <defs>
    <linearGradient id="grad" x1="0%" y1="0%" x2="100%" y2="0%">
      <stop offset="90%" style="stop-color:#fc3200;stop-opacity:1" />
      <stop offset="100%" style="stop-color:#000;stop-opacity:0.6" />
    </linearGradient>
  </defs><g><path  d="M25.2001953,4.5H6.8999023C5.5800781,4.5,4.5,5.5800781,4.5,6.8999023v18.300293   c0,1.3198242,1.0800781,2.3999023,2.3999023,2.3999023h18.300293c1.3198242,0,2.3999023-1.0800781,2.3999023-2.3999023V6.8999023   C27.6000977,5.5800781,26.5200195,4.5,25.2001953,4.5z"/><path d="M25.2001953,32.4003906H6.8999023C5.5800781,32.4003906,4.5,33.4804688,4.5,34.7998047v18.2998047   C4.5,54.4199219,5.5800781,55.5,6.8999023,55.5h18.300293c1.3198242,0,2.3999023-1.0800781,2.3999023-2.4003906V34.7998047   C27.6000977,33.4804688,26.5200195,32.4003906,25.2001953,32.4003906z"/><path d="M53.1000977,32.4003906h-18.300293c-1.3198242,0-2.3999023,1.0800781-2.3999023,2.3994141v18.2998047   c0,1.3203125,1.0800781,2.4003906,2.3999023,2.4003906h18.300293C54.4199219,55.5,55.5,54.4199219,55.5,53.0996094V34.7998047   C55.5,33.4804688,54.4199219,32.4003906,53.1000977,32.4003906z"/><rect x="32.3999023" y="4.5" width="23.1000977" height="4.7792969"/><rect x="32.3999023" y="13.4453125" width="23.1000977" height="4.7797852"/><rect x="32.3999023" y="22.8203125" width="23.1000977" height="4.7797852"/></g><text x="0" y="80" fill="#000" font-size="5px" font-weight="bold" font-family="'Helvetica Neue', Helvetica, Arial-Unicode, Arial, Sans-serif">from the Noun Project</text></svg>